<svg xmlns="http://www.w3.org/2000/svg" width="53" height="62" viewBox="546 145 53 62"><path d="M 590.25 145.25 L 597.75 145.25 L 597.75 145.5 L 598 145.5 L 598 145.75 L 598.25 145.75 L 598.25 146 L 598.5 146 L 598.5 146.25 L 598.75 146.25 L 598.75 158.25 L 599 158.25 L 599 160.5 L 598.75 160.5 L 598.75 166 L 598.5 166 L 598.5 167.5 L 598.25 167.5 L 598.25 168.5 L 598 168.5 L 598 169 L 597.75 169 L 597.75 169.25 L 597.5 169.25 L 597.5 169.75 L 597.25 169.75 L 597.25 170 L 597 170 L 597 170.25 L 596.75 170.25 L 596.75 170 L 596.5 170 L 596.5 169.75 L 596.25 169.75 L 596.25 170 L 596 170 L 596 170.25 L 595.75 170.25 L 595.75 170.5 L 595.5 170.5 L 595.5 170.75 L 595.25 170.75 L 595.25 171 L 595 171 L 595 171.25 L 594.75 171.25 L 594.75 171.5 L 594.5 171.5 L 594.5 171.75 L 594.25 171.75 L 594.25 172 L 594 172 L 594 172.25 L 593.75 172.25 L 593.75 172.5 L 593.5 172.5 L 593.5 172.75 L 593.25 172.75 L 593.25 173 L 593 173 L 593 173.25 L 592.75 173.25 L 592.75 173.5 L 592.5 173.5 L 592.5 173.75 L 592.25 173.75 L 592.25 174.25 L 592 174.25 L 592 174.5 L 591.75 174.5 L 591.75 174.75 L 591.5 174.75 L 591.5 175 L 591.25 175 L 591.25 175.5 L 591 175.5 L 591 176 L 590.75 176 L 590.75 176.75 L 590.5 176.75 L 590.5 177.25 L 590.75 177.25 L 590.75 177.75 L 590.5 177.75 L 590.5 178.25 L 590.25 178.25 L 590.25 178.75 L 590 178.75 L 590 179 L 589.75 179 L 589.75 179.5 L 589.5 179.5 L 589.5 179.75 L 589.25 179.75 L 589.25 180 L 589 180 L 589 180.5 L 588.75 180.5 L 588.75 180.75 L 588.5 180.75 L 588.5 181 L 588.25 181 L 588.25 181.25 L 588 181.25 L 588 181.5 L 587.75 181.5 L 587.75 181.75 L 587.5 181.75 L 587.5 182 L 587.25 182 L 587.25 182.25 L 587 182.25 L 587 182.75 L 586.75 182.75 L 586.75 183 L 586.5 183 L 586.5 183.25 L 586.25 183.25 L 586.25 183.5 L 586 183.5 L 586 183.75 L 585.75 183.75 L 585.75 184 L 585.5 184 L 585.5 184.25 L 585.25 184.25 L 585.25 184.5 L 585 184.5 L 585 184.75 L 584.75 184.75 L 584.75 185 L 584.5 185 L 584.5 185.25 L 584.25 185.25 L 584.25 185.5 L 584 185.5 L 584 185.75 L 583.75 185.75 L 583.75 186 L 583.5 186 L 583.5 186.25 L 583.25 186.25 L 583.25 186.5 L 583 186.5 L 583 186.75 L 582.75 186.75 L 582.75 187 L 582.5 187 L 582.5 187.25 L 582.25 187.25 L 582.25 187.5 L 582 187.5 L 582 187.75 L 581.75 187.75 L 581.75 188 L 581.5 188 L 581.5 188.25 L 581.25 188.25 L 581.25 188.5 L 581 188.5 L 581 188.75 L 580.75 188.75 L 580.75 189 L 580.5 189 L 580.5 189.5 L 580.25 189.5 L 580.25 189.75 L 580 189.75 L 580 190 L 579.75 190 L 579.75 190.25 L 579.5 190.25 L 579.5 190.5 L 579.25 190.5 L 579.25 190.75 L 579 190.75 L 579 191.25 L 578.75 191.25 L 578.75 191.5 L 578.5 191.5 L 578.5 191.75 L 578.25 191.75 L 578.25 192.25 L 578 192.25 L 578 192.5 L 577.75 192.5 L 577.75 192.75 L 577.5 192.75 L 577.5 193.25 L 577.25 193.25 L 577.25 193.75 L 577 193.75 L 577 194.25 L 576.75 194.25 L 576.75 194.75 L 576.5 194.75 L 576.5 195.25 L 576.25 195.25 L 576.25 195.5 L 576 195.5 L 576 196 L 575.75 196 L 575.75 196.25 L 575.5 196.25 L 575.5 196.5 L 575.25 196.5 L 575.25 196.75 L 575 196.75 L 575 197 L 574.75 197 L 574.75 197.25 L 574.5 197.25 L 574.5 197.5 L 574.25 197.5 L 574.25 197.75 L 574 197.75 L 574 198 L 573.75 198 L 573.75 198.25 L 573.5 198.25 L 573.5 198.5 L 573 198.5 L 573 198.75 L 572.75 198.75 L 572.75 199 L 572.25 199 L 572.25 199.25 L 572 199.25 L 572 199.5 L 571.5 199.5 L 571.5 199.75 L 571.25 199.75 L 571.25 200 L 570.75 200 L 570.75 200.25 L 570.5 200.25 L 570.5 200.5 L 570.25 200.5 L 570.25 200.75 L 570 200.75 L 570 201 L 569.75 201 L 569.75 201.25 L 569.5 201.25 L 569.5 201.5 L 569.25 201.5 L 569.25 202 L 569 202 L 569 202.5 L 568.75 202.5 L 568.75 202.75 L 568.25 202.75 L 568.25 203 L 567.25 203 L 567.25 203.25 L 566 203.25 L 566 203.5 L 565.5 203.5 L 565.5 203.75 L 565 203.75 L 565 204 L 564.75 204 L 564.75 204.25 L 564.25 204.25 L 564.25 204.5 L 564 204.5 L 564 204.75 L 563.75 204.75 L 563.75 205 L 563.5 205 L 563.5 205.25 L 563.25 205.25 L 563.25 205.5 L 563 205.5 L 563 205.75 L 562.5 205.75 L 562.5 206 L 562 206 L 562 206.25 L 561.5 206.25 L 561.5 206.5 L 560.75 206.5 L 560.75 206.75 L 559.75 206.75 L 559.75 207 L 552 207 L 552 206.75 L 551 206.75 L 551 206.5 L 550.25 206.5 L 550.25 206.25 L 549.5 206.25 L 549.5 206 L 549 206 L 549 205.75 L 548.5 205.75 L 548.5 205.5 L 548.25 205.5 L 548.25 205.25 L 548 205.25 L 548 205 L 547.75 205 L 547.75 204.75 L 547.5 204.75 L 547.5 204.25 L 547.25 204.25 L 547.25 204 L 547 204 L 547 203.5 L 546.75 203.5 L 546.75 202.75 L 546.5 202.75 L 546.5 202 L 546.25 202 L 546.25 198.25 L 546.5 198.25 L 546.5 197.5 L 546.75 197.5 L 546.75 197 L 547 197 L 547 196.75 L 547.25 196.75 L 547.25 196.5 L 547.5 196.5 L 547.5 196.25 L 547.75 196.25 L 547.75 196 L 548 196 L 548 195.75 L 548.25 195.75 L 548.25 195.5 L 548.5 195.5 L 548.5 195.25 L 548.75 195.25 L 548.75 195 L 549 195 L 549 194.75 L 549.25 194.75 L 549.25 194.5 L 549.5 194.5 L 549.5 194.25 L 549.75 194.25 L 549.75 193.75 L 550 193.75 L 550 192.75 L 550.25 192.75 L 550.25 191 L 550.5 191 L 550.5 190.25 L 550.75 190.25 L 550.75 189.5 L 551 189.5 L 551 189 L 551.25 189 L 551.25 188.5 L 551.5 188.5 L 551.5 187.75 L 551.75 187.75 L 551.75 187.5 L 552 187.5 L 552 187 L 552.25 187 L 552.25 186.5 L 552.5 186.5 L 552.5 186 L 552.75 186 L 552.75 185.75 L 553 185.75 L 553 185.25 L 553.25 185.25 L 553.25 185 L 553.5 185 L 553.5 184.5 L 553.75 184.5 L 553.75 184.25 L 554 184.25 L 554 184 L 554.25 184 L 554.25 183.5 L 554.5 183.5 L 554.5 183.25 L 554.75 183.25 L 554.75 183 L 555 183 L 555 182.75 L 555.25 182.75 L 555.25 182.5 L 555.5 182.5 L 555.5 182.25 L 555.75 182.25 L 555.75 182 L 556 182 L 556 181.75 L 556.25 181.75 L 556.25 181.25 L 556.5 181.25 L 556.5 181 L 556.75 181 L 556.75 180.5 L 557 180.5 L 557 180.25 L 557.25 180.25 L 557.25 179.75 L 557.5 179.75 L 557.5 179.25 L 557.75 179.25 L 557.75 178.75 L 558 178.75 L 558 178 L 558.25 178 L 558.25 177.25 L 558.5 177.25 L 558.5 176.25 L 558.75 176.25 L 558.75 175.25 L 559 175.25 L 559 171.75 L 559.25 171.75 L 559.25 168.25 L 559.5 168.25 L 559.5 166.5 L 559.75 166.5 L 559.75 166 L 559.5 166 L 559.5 165.75 L 559.25 165.75 L 559.25 165.5 L 559 165.5 L 559 165.25 L 558.75 165.25 L 558.75 165 L 558 165 L 558 164.75 L 557.5 164.75 L 557.5 164.5 L 557 164.5 L 557 164.25 L 556.5 164.25 L 556.5 164 L 556 164 L 556 163.75 L 555.5 163.75 L 555.5 163.5 L 555 163.5 L 555 163.25 L 554.5 163.25 L 554.5 163 L 554 163 L 554 162.75 L 553.5 162.75 L 553.5 162.5 L 553 162.5 L 553 162.25 L 552.5 162.25 L 552.5 162 L 552 162 L 552 161.75 L 551.5 161.75 L 551.5 161 L 551.75 161 L 551.75 160.5 L 552 160.5 L 552 159.25 L 552.25 159.25 L 552.25 157.75 L 552.5 157.75 L 552.5 157 L 552.75 157 L 552.75 156.5 L 553 156.5 L 553 156 L 553.25 156 L 553.25 155.5 L 553.5 155.5 L 553.5 155.25 L 553.75 155.25 L 553.75 154.75 L 554 154.75 L 554 154.5 L 554.25 154.5 L 554.25 154.25 L 554.5 154.25 L 554.5 154 L 554.75 154 L 554.75 153.75 L 555 153.75 L 555 153.5 L 555.25 153.5 L 555.25 153.25 L 555.5 153.25 L 555.5 153 L 555.75 153 L 555.75 152.75 L 556.25 152.75 L 556.25 152.5 L 556.5 152.5 L 556.5 152.25 L 557 152.25 L 557 152 L 557.5 152 L 557.5 151.75 L 557.75 151.75 L 557.75 151.5 L 558.25 151.5 L 558.25 151.25 L 558.75 151.25 L 558.75 151 L 559.25 151 L 559.25 150.75 L 559.75 150.75 L 559.75 150.5 L 560.25 150.5 L 560.25 150.25 L 560.5 150.25 L 560.5 150 L 561 150 L 561 149.75 L 561.5 149.75 L 561.5 149.5 L 562 149.5 L 562 149.25 L 562.25 149.25 L 562.25 149 L 562.5 149 L 562.5 148.75 L 563 148.75 L 563 148.5 L 563.25 148.5 L 563.25 148.25 L 563.5 148.25 L 563.5 148 L 564 148 L 564 147.75 L 564.25 147.75 L 564.25 147.5 L 564.5 147.5 L 564.5 147.25 L 564.75 147.25 L 564.75 147 L 565 147 L 565 146.75 L 565.25 146.75 L 565.25 146.5 L 566.75 146.5 L 566.75 146.75 L 567.25 146.75 L 567.25 147 L 567.75 147 L 567.75 147.25 L 568.25 147.25 L 568.25 147.5 L 568.75 147.5 L 568.75 147.75 L 569 147.75 L 569 148 L 569.5 148 L 569.5 148.25 L 569.75 148.25 L 569.75 148.5 L 570.25 148.5 L 570.25 148.75 L 570.75 148.75 L 570.75 149 L 571 149 L 571 149.25 L 571.5 149.25 L 571.5 149.5 L 571.75 149.5 L 571.75 149.75 L 572 149.75 L 572 150 L 572.25 150 L 572.25 150.5 L 572.5 150.5 L 572.5 150.75 L 572.75 150.75 L 572.75 151 L 573 151 L 573 151.25 L 573.25 151.25 L 573.25 151.5 L 573.5 151.5 L 573.5 151.75 L 573.75 151.75 L 573.75 152 L 574.75 152 L 574.75 151.75 L 576 151.75 L 576 151.5 L 576.75 151.5 L 576.75 151.25 L 577.25 151.25 L 577.25 151 L 577.75 151 L 577.75 150.75 L 578 150.75 L 578 150.5 L 578.25 150.5 L 578.25 150.25 L 578.75 150.25 L 578.75 150 L 579 150 L 579 149.75 L 579.25 149.75 L 579.25 149.5 L 579.5 149.5 L 579.5 149.25 L 579.75 149.25 L 579.75 149 L 580 149 L 580 148.75 L 580.25 148.75 L 580.25 148.5 L 580.5 148.5 L 580.5 148.25 L 580.75 148.25 L 580.75 148 L 581 148 L 581 147.75 L 581.25 147.75 L 581.25 147.5 L 582 147.5 L 582 147.25 L 582.25 147.25 L 582.25 147 L 582.5 147 L 582.5 146.75 L 583.75 146.75 L 583.75 146.5 L 584.75 146.5 L 584.75 146.25 L 585.5 146.25 L 585.5 146 L 586.25 146 L 586.25 145.75 L 587.75 145.75 L 587.75 145.5 L 590.25 145.5 Z" fill="#e0dcc0" fill-rule="evenodd"/></svg>
