<svg version="1.0" xmlns="http://www.w3.org/2000/svg"
 width="53" height="68" viewBox="0 0 53.000000 68.000000"
 preserveAspectRatio="xMidYMid meet">
<g transform="translate(0.000000,68.000000) scale(0.100000,-0.100000)"
fill="#f7e9d9" stroke="#ffb241" stroke-width="1.00" stroke-linejoin="round" vector-effect="non-scaling-stroke">
<path d="M118 645 c-9 -20 -18 -25 -50 -25 -38 0 -38 0 -38 -39 0 -22 -4 -43
-10 -46 -19 -12 -10 -85 16 -136 14 -28 28 -79 32 -112 7 -65 6 -63 80 -83 6
-2 12 -16 12 -31 0 -42 56 -83 113 -83 12 0 28 -9 35 -20 8 -13 23 -20 42 -20
17 0 39 -9 50 -20 11 -11 31 -20 45 -20 20 0 25 5 25 25 0 17 8 29 25 37 18 8
25 19 25 37 -1 46 -18 115 -29 119 -18 6 -12 41 9 54 23 14 27 60 8 75 -7 6
-25 13 -40 17 -23 5 -28 12 -28 37 0 20 -8 37 -22 49 l-23 18 29 31 c26 27 28
34 18 56 -12 26 -17 27 -91 29 -39 1 -47 5 -60 31 -22 42 -28 45 -99 45 -57 0
-63 -2 -74 -25z"/>
</g>
</svg>
