<svg xmlns="http://www.w3.org/2000/svg" width="210" height="139" viewBox="0 0 210 139" role="img" aria-label="Australia">
  <defs><linearGradient id="wash" x1="0" y1="0" x2="0.9" y2="1"><stop offset="0" stop-color="#b1dad1"/><stop offset="0.55" stop-color="#a6d5cb"/><stop offset="1" stop-color="#9ed1c6"/></linearGradient></defs>
  <path d="M 49 3 L 53 3 L 53 4 L 57 4 L 57 5 L 62 5 L 62 6 L 66 6 L 66 7 L 71 7 L 71 8 L 76 8 L 76 9 L 80 9 L 80 10 L 85 10 L 85 11 L 88 11 L 88 10 L 93 10 L 93 9 L 98 9 L 98 8 L 104 8 L 104 7 L 109 7 L 109 6 L 114 6 L 114 5 L 119 5 L 119 4 L 127 4 L 127 5 L 131 5 L 131 6 L 135 6 L 135 7 L 139 7 L 139 8 L 143 8 L 143 9 L 147 9 L 147 10 L 151 10 L 151 11 L 155 11 L 155 12 L 159 12 L 159 13 L 163 13 L 163 14 L 166 14 L 166 15 L 167 15 L 167 16 L 169 16 L 169 17 L 170 17 L 170 18 L 172 18 L 172 19 L 173 19 L 173 20 L 174 20 L 174 21 L 176 21 L 176 22 L 177 22 L 177 23 L 178 23 L 178 24 L 180 24 L 180 25 L 181 25 L 181 26 L 182 26 L 182 27 L 184 27 L 184 28 L 185 28 L 185 29 L 186 29 L 186 30 L 188 30 L 188 31 L 189 31 L 189 32 L 191 32 L 191 33 L 192 33 L 192 34 L 193 34 L 193 35 L 195 35 L 195 36 L 196 36 L 196 37 L 197 37 L 197 38 L 199 38 L 199 39 L 200 39 L 200 43 L 201 43 L 201 48 L 202 48 L 202 52 L 203 52 L 203 57 L 204 57 L 204 61 L 205 61 L 205 66 L 206 66 L 206 70 L 207 70 L 207 71 L 206 71 L 206 73 L 205 73 L 205 75 L 204 75 L 204 77 L 203 77 L 203 78 L 202 78 L 202 80 L 201 80 L 201 82 L 200 82 L 200 84 L 199 84 L 199 86 L 198 86 L 198 87 L 197 87 L 197 89 L 196 89 L 196 91 L 195 91 L 195 93 L 194 93 L 194 95 L 193 95 L 193 96 L 192 96 L 192 98 L 191 98 L 191 100 L 190 100 L 190 102 L 189 102 L 189 104 L 188 104 L 188 106 L 187 106 L 187 108 L 186 108 L 186 110 L 185 110 L 185 112 L 184 112 L 184 114 L 183 114 L 183 116 L 182 116 L 182 118 L 181 118 L 181 120 L 180 120 L 180 122 L 179 122 L 179 124 L 178 124 L 178 126 L 177 126 L 177 128 L 176 128 L 176 130 L 175 130 L 175 131 L 174 131 L 174 132 L 153 132 L 153 133 L 131 133 L 131 134 L 110 134 L 110 135 L 88 135 L 88 136 L 67 136 L 67 134 L 66 134 L 66 133 L 65 133 L 65 132 L 64 132 L 64 131 L 63 131 L 63 130 L 61 130 L 61 129 L 60 129 L 60 128 L 59 128 L 59 127 L 58 127 L 58 126 L 57 126 L 57 125 L 56 125 L 56 124 L 55 124 L 55 123 L 54 123 L 54 122 L 53 122 L 53 121 L 52 121 L 52 120 L 51 120 L 51 119 L 49 119 L 49 118 L 48 118 L 48 117 L 47 117 L 47 116 L 46 116 L 46 115 L 45 115 L 45 114 L 44 114 L 44 113 L 43 113 L 43 112 L 42 112 L 42 111 L 41 111 L 41 110 L 40 110 L 40 109 L 38 109 L 38 108 L 37 108 L 37 107 L 36 107 L 36 106 L 35 106 L 35 105 L 34 105 L 34 104 L 33 104 L 33 103 L 32 103 L 32 102 L 31 102 L 31 101 L 30 101 L 30 100 L 29 100 L 29 99 L 28 99 L 28 98 L 26 98 L 26 97 L 25 97 L 25 96 L 24 96 L 24 95 L 23 95 L 23 94 L 22 94 L 22 93 L 21 93 L 21 92 L 20 92 L 20 91 L 19 91 L 19 90 L 18 90 L 18 89 L 17 89 L 17 88 L 13 88 L 13 87 L 12 87 L 12 84 L 11 84 L 11 82 L 10 82 L 10 79 L 9 79 L 9 76 L 8 76 L 8 74 L 7 74 L 7 71 L 6 71 L 6 69 L 5 69 L 5 66 L 4 66 L 4 63 L 3 63 L 3 60 L 4 60 L 4 56 L 5 56 L 5 52 L 6 52 L 6 47 L 7 47 L 7 43 L 8 43 L 8 39 L 9 39 L 9 34 L 10 34 L 10 30 L 11 30 L 11 26 L 12 26 L 12 21 L 13 21 L 13 17 L 14 17 L 14 16 L 15 16 L 15 15 L 17 15 L 17 14 L 20 14 L 20 13 L 22 13 L 22 12 L 24 12 L 24 11 L 26 11 L 26 10 L 29 10 L 29 9 L 32 9 L 32 8 L 35 8 L 35 7 L 39 7 L 39 6 L 42 6 L 42 5 L 46 5 L 46 4 L 49 4 Z" fill="url(#wash)" fill-rule="nonzero"/>
</svg>
