<svg xmlns="http://www.w3.org/2000/svg" width="57" height="48" viewBox="0 0 57 48" role="img" aria-label="ElSalvador">
  <defs><linearGradient id="wash" x1="0" y1="0" x2="0.9" y2="1"><stop offset="0" stop-color="#efd9aa"/><stop offset="0.55" stop-color="#edd49d"/><stop offset="1" stop-color="#ebd095"/></linearGradient></defs>
  <path d="M 37 3 L 38 3 L 38 4 L 39 4 L 39 5 L 40 5 L 40 7 L 41 7 L 41 9 L 42 9 L 42 10 L 43 10 L 43 12 L 44 12 L 44 14 L 45 14 L 45 15 L 46 15 L 46 17 L 47 17 L 47 19 L 48 19 L 48 20 L 49 20 L 49 22 L 50 22 L 50 23 L 51 23 L 51 24 L 52 24 L 52 25 L 53 25 L 53 26 L 54 26 L 54 28 L 53 28 L 53 29 L 52 29 L 52 30 L 51 30 L 51 31 L 50 31 L 50 32 L 49 32 L 49 33 L 48 33 L 48 34 L 47 34 L 47 35 L 46 35 L 46 36 L 44 36 L 44 37 L 43 37 L 43 38 L 42 38 L 42 39 L 41 39 L 41 40 L 40 40 L 40 41 L 39 41 L 39 42 L 38 42 L 38 43 L 37 43 L 37 44 L 35 44 L 35 45 L 33 45 L 33 44 L 31 44 L 31 43 L 30 43 L 30 42 L 28 42 L 28 41 L 27 41 L 27 40 L 25 40 L 25 39 L 24 39 L 24 38 L 22 38 L 22 37 L 21 37 L 21 36 L 20 36 L 20 35 L 18 35 L 18 34 L 17 34 L 17 33 L 15 33 L 15 32 L 14 32 L 14 31 L 12 31 L 12 30 L 11 30 L 11 29 L 10 29 L 10 28 L 9 28 L 9 27 L 7 27 L 7 26 L 6 26 L 6 25 L 5 25 L 5 24 L 4 24 L 4 23 L 3 23 L 3 22 L 4 22 L 4 18 L 7 18 L 7 17 L 9 17 L 9 16 L 11 16 L 11 15 L 13 15 L 13 14 L 15 14 L 15 13 L 18 13 L 18 12 L 20 12 L 20 11 L 22 11 L 22 10 L 24 10 L 24 9 L 26 9 L 26 8 L 28 8 L 28 7 L 31 7 L 31 6 L 33 6 L 33 5 L 35 5 L 35 4 L 37 4 Z" fill="url(#wash)" fill-rule="nonzero"/>
</svg>
